<svg xmlns="http://www.w3.org/2000/svg" width="24" height="24" viewBox="0 0 24 24">
    <g fill="none" fill-rule="evenodd">
        <g>
            <g>
                <g>
                    <g>
                        <path fill="#FFF" fill-opacity=".01" d="M0 0H24V24H0z" transform="translate(-914 -451) translate(880 193) translate(17 241) translate(17 17)"/>
                        <g fill="#B1B1B1" fill-rule="nonzero">
                            <path d="M14.36 12c.08-.66.14-1.32.14-2 0-.68-.06-1.34-.14-2h3.38c.16.64.26 1.31.26 2s-.1 1.36-.26 2m-5.15 5.56c.6-1.11 1.06-2.31 1.38-3.56h2.95c-.96 1.65-2.49 2.93-4.33 3.56M12.34 12H7.66c-.1-.66-.16-1.32-.16-2 0-.68.06-1.35.16-2h4.68c.09.65.16 1.32.16 2 0 .68-.07 1.34-.16 2M10 17.96c-.83-1.2-1.5-2.53-1.91-3.96h3.82c-.41 1.43-1.08 2.76-1.91 3.96M6 6H3.08c.95-1.66 2.49-2.94 4.32-3.56C6.8 3.55 6.35 4.75 6 6m-2.92 8H6c.35 1.25.8 2.45 1.4 3.56-1.83-.63-3.37-1.91-4.32-3.56m-.82-2C2.1 11.36 2 10.69 2 10s.1-1.36.26-2h3.38c-.08.66-.14 1.32-.14 2 0 .68.06 1.34.14 2M10 2.03c.83 1.2 1.5 2.54 1.91 3.97H8.09C8.5 4.57 9.17 3.23 10 2.03M16.92 6h-2.95c-.32-1.25-.78-2.45-1.38-3.56 1.84.63 3.37 1.9 4.33 3.56M10 0C4.47 0 0 4.5 0 10c0 2.652 1.054 5.196 2.929 7.071C4.804 18.946 7.348 20 10 20c5.523 0 10-4.477 10-10 0-2.652-1.054-5.196-2.929-7.071C15.196 1.054 12.652 0 10 0z" transform="translate(-914 -451) translate(880 193) translate(17 241) translate(17 17) translate(2 2)"/>
                        </g>
                    </g>
                </g>
            </g>
        </g>
    </g>
</svg>
